<?xml version="1.0" encoding="utf-8"?>
<!-- Generator: Adobe Illustrator 18.1.1, SVG Export Plug-In . SVG Version: 6.00 Build 0)  -->
<svg version="1.1" id="Lager_1" xmlns="http://www.w3.org/2000/svg" xmlns:xlink="http://www.w3.org/1999/xlink" x="0px" y="0px"
	 viewBox="0 0 124 124" enable-background="new 0 0 124 124" xml:space="preserve">
<g>
	<polygon fill="none" points="65.4,25.5 59,25.5 59,59 25.5,59 25.5,65.4 59,65.4 59,99 65.4,99 65.4,65.4 99,65.4 99,59 65.4,59 	
		"/>
	<path d="M62.2,0C27.9,0,0,27.9,0,62.2s27.9,62.2,62.2,62.2c34.4,0,62.2-27.9,62.2-62.2S96.6,0,62.2,0z M99,65.4H65.4V99H59V65.4
		H25.5V59H59V25.5h6.4V59H99V65.4z"/>
</g>
</svg>
