<?xml version="1.0" encoding="utf-8"?>
<!-- Generator: Adobe Illustrator 18.1.1, SVG Export Plug-In . SVG Version: 6.00 Build 0)  -->
<svg version="1.1" id="Lager_1" xmlns="http://www.w3.org/2000/svg" xmlns:xlink="http://www.w3.org/1999/xlink" x="0px" y="0px"
	 viewBox="0 0 640 640" enable-background="new 0 0 640 640" xml:space="preserve">
<g>
	<polygon fill="none" points="412.4,219.8 406,219.8 406,253.3 372.5,253.3 372.5,259.8 406,259.8 406,293.3 412.4,293.3 
		412.4,259.8 446,259.8 446,253.3 412.4,253.3 	"/>
	<path d="M409.2,194.3c-34.4,0-62.2,27.9-62.2,62.2s27.9,62.2,62.2,62.2c34.4,0,62.2-27.9,62.2-62.2S443.6,194.3,409.2,194.3z
		 M446,259.8h-33.5v33.5H406v-33.5h-33.5v-6.4H406v-33.5h6.4v33.5H446V259.8z"/>
</g>
</svg>
