<?xml version="1.0" encoding="utf-8"?>
<!-- Generator: Adobe Illustrator 18.1.1, SVG Export Plug-In . SVG Version: 6.00 Build 0)  -->
<svg version="1.1" id="Lager_1" xmlns="http://www.w3.org/2000/svg" xmlns:xlink="http://www.w3.org/1999/xlink" x="0px" y="0px"
	 viewBox="0 0 640 640" enable-background="new 0 0 640 640" xml:space="preserve">
<g>
	<polygon fill="#FFFFFF" points="316,383.3 316,387.3 316.8,396.8 320.6,397.5 323.7,396.9 326.1,396.4 326.1,390.9 328.3,384.6 
		322.6,383.3 	"/>
	<polygon fill="#FFFFFF" points="320.6,400.3 321.5,419.3 322.7,422 328.6,422.8 334.2,422 335,419.2 334.2,399.3 326.9,398.3 	"/>
	<polygon fill="#FFFFFF" points="345.6,404.8 346.4,420.2 350.9,420.9 354.6,420.9 353.7,404.7 351.5,402.3 350.4,401.7 346,401.7 	
		"/>
	<path fill="#FFFFFF" d="M349.7,382.8l-2.8,11.3v4.6l4.4,0.3l2.3-8.3v8.9l5.7,2.1c0.5-3.2,2.2-12.3,4.9-18.4L349.7,382.8z"/>
	<polygon fill="#FFFFFF" points="359.6,403.9 359.6,403.9 359.6,403.9 359.6,403.9 	"/>
	<polygon fill="#FFFFFF" points="306.7,400.3 306.1,420.8 307.2,422 317.6,422 319.6,419.3 318.6,400.3 312.4,399.3 	"/>
	<path fill="#FFFFFF" d="M335.6,424.9c-0.6,0.2-1.1,0.3-1.8,0.3h-8.7c-2.2,0-4.1-1.4-4.8-3.4c-0.7,1.7-2.5,3-4.5,3
		c0.6,0,1.3,0,1.9,0l2.1,8.6l5.4,5l4.2-3.5v-9.4c0.4,0,0.9,0,1.3,0l1.4,8.2l5.8,2.3l4.6-0.8v-9.7c-0.9,0.5-1.9,0.8-3,0.8
		C338.3,426.5,336.9,425.9,335.6,424.9z"/>
	<path fill="#FFFFFF" d="M356,423.4c-0.8,0.2-1.8,0.4-2.7,0.4c-1.7,0-3.2-0.4-4.6-1.1c-0.7,0.1-1.4,0.2-2.2,0.2c-0.2,0-0.5,0-0.7,0
		c-0.1,0.1-0.2,0.2-0.3,0.4l1.9,1l-2.9,0.2c-0.1,0.1-0.2,0.2-0.3,0.3l1.6,11.2l4.2,6.2v-7.3l-2.1-10.2c0.4,0,0.9,0,1.3,0l3.4,10.7
		l4.4-0.4l-0.4-9.3c0.5,0,1,0,1.4-0.1l1.7,7.8v-7.6l-4.2-1.8L356,423.4z"/>
	<polygon fill="#FFFFFF" points="305.6,384.7 305.6,390.9 305.3,397.1 309.9,396.3 314.3,396.3 314.3,394 312.1,384.6 	"/>
	<polygon fill="#FFFFFF" points="280.6,409.3 282,417.4 285.5,419.8 285.5,402.8 283,404.3 	"/>
	<polygon fill="#FFFFFF" points="287.6,401 287.6,419.8 290.4,420.9 294.5,419.7 294.5,401 291,400.3 	"/>
	<path fill="#FFFFFF" d="M273.3,381.5c-0.2,0-0.4,0-0.6-0.1c6.5,4.4,10.2,11.9,11.3,16.2h2.1l-5.5-10.8L273.3,381.5z"/>
	<path fill="#FFFFFF" d="M355.2,339.3c22.9,0,30.3-19.2,30.3-31.2c0-0.4,0-0.8-0.1-1.2c0-0.4,0.1-0.8,0.1-1.2
		c0-6.7-5.4-12.2-12-12.2c-1.4,0-2.8,0.3-4.1,0.7c-2.1-1.7-4.7-2.7-7.5-2.7c-2.2,0-4.3,0.6-6,1.7c-1.9-1.3-4.2-2.1-6.7-2.1
		c-2,0-3.8,0.5-5.5,1.3c-1.8-1.1-3.9-1.7-6.2-1.7c-6.3,0-11.5,4.9-12,11.2c-0.5,1.7-0.7,3.7-0.7,6.1
		C324.9,320.1,328.4,339.3,355.2,339.3z M371.4,297c2.5-1.7,9.1,0.4,9.8,5.1c0.7,4.5-6.7,2.5-10.6,8.1
		C366.8,309.2,368.3,299.1,371.4,297z M358.6,295.3c3.4-2.5,9.2,0,9.2,1.4s-8.8,9-11.4,17.3C353.3,313.8,353.6,298.9,358.6,295.3z
		 M333.5,294.1c1.4-0.5,5.1-1.5,9.9,1.8c-0.1,0.1-0.2,0.2-0.3,0.3c0.5-0.5,1.1-0.9,1.8-1.2c3.1-1.5,8.1-1.3,9.8,1.3
		c3.8,5.8-8.1,11.2-14,25.9c-3.5-1.2-4.2-19.1,2-25.5c-4.6,4.4-10.7,10.7-10.9,19.2c-0.3,9.9,6.5,15.6,5.5,16.2
		c-0.9,0.5-5.5-2.9-8.2-11.2C325.9,310.8,326.3,296.8,333.5,294.1z"/>
	<path fill="#FFFFFF" d="M255.9,313.7l0.8,8.3l3.7,3.8c2.2,3.5,5.1,6.8,8.9,9.2l0,0l0.1,0c1.4,0.9,3,1.7,4.7,2.3l10,4.9l17-4
		l9.9-6.3l1.2-6.5c3-5.9,3.7-12.7,3.7-18.1c0-0.4,0-0.7,0-1l1.1-5.5l-6-10.3l-9.9-2l-4,2.9c-1.2-0.6-2.4-1-3.8-1.2l-5.2-1.7
		l-4.8,2.8c0,0,0,0,0,0l-6.9-2.8l-5,4.7c-1.3-0.5-2.7-0.8-4.1-0.8c-0.7,0-1.4,0.1-2.1,0.2l-2.8-0.2l-8,7.1l0.9,8.5
		C255.3,309.8,255.5,311.7,255.9,313.7z M259.1,301.5c3.1-8.6,12.4-5.5,13-4.4c0.1,0.1,0.1,0.2,0.1,0.3c5.1-6.1,11.5-2.9,12.7-1.9
		c5-3.5,11.7-2.1,13.5-0.3c0.5-0.5,1-0.9,1.6-1.3c6-3.8,13.4,4.4,13.2,5.7c-0.3,1.2-7.4-3.4-12.7,1.1c-4.3,3.7-3.7,6.6-4.1,9.9
		c-0.2,2-0.9,0.6-1,0.6c-0.5,0-2.4-9.2,2.7-15.5c-1.8,0.9-6.5,1.4-9.4,5.3c-4.1,5.4-4.1,14-5.5,14.7c-1.4,0.7-5.3-8.9-2-15.6
		c0.3-0.6,0.7-1.2,1-1.7c-2,1.7-4.5,4.5-6.3,9.2c-5,13.2-0.6,15.6-2,15.9c-1.6,0.3-8.8-7.9-5-20.3c0.8-2.6,1.8-3.5,2.9-5
		c-1.2,1.1-3.9,2.4-6.9,9.3c-3.5,8.2,7.5,25.5,6.4,25.7C269.9,333.4,254.8,319.3,259.1,301.5z"/>
	<polygon fill="#FFFFFF" points="290,382.8 285.9,385.1 283.9,383.4 289.9,398.2 291.7,398.9 295.4,397.6 294.2,388.7 	"/>
	<path fill="#FFFFFF" d="M304.8,424.2c-1.3,1-2.7,1.6-4.1,1.6c-1.2,0-2.3-0.4-3.4-1.1l1.4,9.5l3.9,2.7l3.9-2.7v-9.1
		c0.5,0,0.9,0,1.4,0l1.3,8.7l3.9,6.2l2.7-6.9v-8.2h-8.5C306.4,424.9,305.5,424.6,304.8,424.2z"/>
	<polygon fill="#FFFFFF" points="303,422 304,420.3 304,400.3 299.4,399.3 296.5,401.5 296.5,421 299.5,422.8 	"/>
	<polygon fill="#FFFFFF" points="302.6,387.3 297.4,383.9 294.8,382.9 297.4,388.7 296,397.6 302.9,397.4 	"/>
	<polygon fill="#FFFFFF" points="331,385.2 329.2,390.9 328.6,396.7 331.7,397.2 335.1,396.8 336.8,393.2 337.7,397.2 345.4,398.5 
		346.1,398.6 344,396.2 342.8,395.3 343.2,382.3 	"/>
	<polygon fill="#FFFFFF" points="335.9,400.3 336.6,419.3 337.2,422.8 340.2,423.7 343.9,422 343.9,406 341.7,401.2 	"/>
	<path fill="#FFFFFF" d="M328.6,363.4c-1.1,0-2,0.5-2,1.8s0.9,2.3,2,2.3s2-1,2-2.3S329.7,363.4,328.6,363.4z"/>
	<path fill="#FFFFFF" d="M328.5,357.5c-3.6,0-6.6,0.4-6.6,4.7c0,4.2,2.9,7.6,6.6,7.6s6.6-3.4,6.6-7.6
		C335.1,357.9,332.1,357.5,328.5,357.5z M328.3,369c-2.7,0-4.9-2.5-4.9-5.7s2.2-4.4,4.9-4.4s4.9,1.3,4.9,4.4S330.9,369,328.3,369z"
		/>
	<path fill="#FFFFFF" d="M310.7,363.8c-1.1,0-2,0.5-2,1.8s0.9,2.3,2,2.3s2-1,2-2.3S311.8,363.8,310.7,363.8z"/>
	<path fill="#FFFFFF" d="M360.4,425.7l2.6,9.2l2.1-9.2C365.2,426.4,360.4,425.7,360.4,425.7z"/>
	<path fill="#FFFFFF" d="M312.1,357.1c-3.6,0-6.6,1.7-6.6,5.9c0,4.2,2.9,7.6,6.6,7.6s6.6-3.4,6.6-7.6
		C318.7,358.8,315.8,357.1,312.1,357.1z M312.1,369.4c-2.7,0-4.9-2.5-4.9-5.7c0-3.1,2.2-4.4,4.9-4.4s4.9,1.3,4.9,4.4
		C317,366.8,314.8,369.4,312.1,369.4z"/>
	<path fill="#FFFFFF" d="M320,136.5c-101.3,0-183.5,82.2-183.5,183.5S218.7,503.5,320,503.5S503.5,421.3,503.5,320
		S421.3,136.5,320,136.5z M445.1,260.6l-43.9,31.2c2.9,9.2,4.5,19.2,4.5,30c0,5.1-0.4,10.5-1.1,15.9l-0.1-0.1l0.3,2.1
		c-0.3,1-0.7,2.2-1,3.3c-0.3,2-0.7,4.1-1.2,6.1c0,0.2,0,0.4,0.1,0.5l0.3,1l-0.8,0.6c-5.4,4.1-8.1,12.4-10.3,19.1
		c-2,6-3.3,10-6.2,10.3l-0.6,0.1l-0.5-0.4c-0.3-0.3-1.1-0.7-3.2-1.1l-5.4,21.1l-0.1,24.1c3.4-1.3,8.5-2.9,11-1.9
		c-1.3,23.1-11.6,42.5-36.7,49.9c-7,2-22.5-0.5-30.3-0.5c-9.3,0-24.1,2.1-32.1-0.8c-24.1-8.5-35-28.3-35-51.3c0-0.2,0-0.5,0-0.7
		l12,5.9c0,0,8.2,0,11.4,0.8l0.1,9.2l6-10.6c0.2,0.1,0.5,0.1,0.7,0.2l-4.4,10.5h8.1l2.8-11.2c0.6,0.1,1.2,0.1,1.8,0.2v11l2.7,6.9
		l1.9-6.9v-11.1c0.1,0,0.1,0,0.2,0c-0.3-0.3-0.6-0.6-0.9-0.9l-16.9,0.7l1.7-5c-1.1-1.8-1.7-4.2-1.7-7.3c0-4.9,1.5-8.1,4.1-9.7
		c0-0.2,0.1-0.5,0.1-0.5l-3.3,2.6l-0.1-1.7l-1-8.5l-5.1-7.6l-5.8-4.2l-1.8-1.6c-0.3-0.1-0.6-0.1-0.9-0.2l4.8,5.6l-1.2,8.5l2.6,13.3
		l5.3,11.7l-1.7,5.9h-7l5.8-4.5l-6.6,2.4l0.8-18.3l-4.3-25.1c-6.1-1.9-6.1-4.3-6.1-5.4c0-6-13.4-18.6-18.6-22.9l-0.5-0.4l-1-10.6
		l0,0c-0.9-6.3-1.4-12.5-1.4-18.4c0-11.4,1.8-22,5-31.6l-43.1-30.6l-9.3-46l22,34l43.2,18.4c10.5-13.9,25.1-24,41.9-29
		c7.9-2.4,16.2-0.6,24.9-0.7c-0.1-0.9-0.1-5.2-0.1-6.8c-17.2,1.2-23.6-6.7-32.4-13c-9.2-6.6-53.5-4.9-12.2-20.9
		c29.8-11.6,41.3,11,45.4,24.6c1.9-10.6,8-24.1,25.3-30c7.4,4.7,5.4,8.3,5.4,8.3s-21.9-0.9-27.1,37.9c9.6,0.4,18.7-0.7,27.2,2.5
		c14.9,5.6,27.8,15.4,37.2,28.3l43.6-18.6l22-34L445.1,260.6z"/>
	<path fill="#FFFFFF" d="M375.5,391.6l-1.9-13c-0.3,0-0.7,0-1.1,0c-3,4.7-11.7,19.3-9.2,26.2c0.2,2,0.1,3-0.2,3.5l1.8,4.8l-2.3,3.2
		l3.3-4.7l0.6-12.2l5.1-13.3l-1.3,22.4l3.3,15.2l0.3,0.8c0,0,0.1,0.6,1.9,0l-2.3-16.4L375.5,391.6z"/>
	<polygon fill="#FFFFFF" points="360.4,405.4 355.9,405.4 356.6,420.9 359.5,422.8 362.1,422.8 362.6,416.3 362.9,413.2 	"/>
	<path fill="#FFFFFF" d="M385.9,349.2c-2.1-1.6-4.8-2.6-7.8-2.6c-3.6,0-6.8,1.4-9,3.7c-1.9-1.2-4.3-2-6.9-2c-3.4,0-6.5,1.3-8.6,3.4
		c-2.2-2.1-5.3-3.4-8.6-3.4c-2.8,0-5.4,0.9-7.5,2.4c-2.4-8.6-9-10.9-16.9-10.9c-7.4,0-13.8,1.6-16.4,9.4c-1.5-0.6-3.1-0.9-4.7-0.9
		c-3.3,0-6.3,1.2-8.5,3.2c-2.2-2-5.2-3.2-8.5-3.2c-3.6,0-6.8,1.4-9,3.7c-2.2-2.3-5.4-3.7-9-3.7c-2.8,0-5.5,0.9-7.5,2.4
		c-2.2-2.5-5.6-4.2-9.4-4.2c-2.5,0-4.9,0.7-6.8,2l0.1,0.8c0.3,0.3,0.8,0.7,1.4,1.2c4-4.9,13.9-0.2,10.8,1.5c-2,1.1-2.7,3.9-3.1,5.7
		c5,5.3,10.2,11.7,10.2,16.3c0,1.9,7.3,5.4,34.8,5.4c2.2,0,4,0,5.1,0l2.3-7.3l1.7,2.9c0,0,3.2,5.2,7.7,5.2h19.2l6.5-7.2l0.1,0.1
		l-0.3-2.5l1.8-2.1l0.9,5.9l-0.7,2.1l0.5,1c1.8-0.2,5.7-0.6,10.5-1l1.6-9.2v8.7l0,0.3c5.4-0.4,11.6-0.8,17.3-0.9l1.5-1.1l0.6,1.1
		c0,0,0.1,0,0.1,0c9.4,0,13,0.9,14.7,1.9c1-1,2.3-5.2,3.3-8c2.2-6.8,5-15.3,10.7-20.1c0-0.4,0-0.9,0.1-1.3c-1.8-1-3.9-1.5-6.1-1.5
		C390.7,346.6,388,347.5,385.9,349.2z M263.7,356.1l-2.7,4.5l-0.9,5.8l-3.4-5.8c0,0-0.1-3,0.4-4.9c0.5-1.8,3.1-3.7,3.1-3.7l5.7-0.6
		l4.8,2.3C267.5,353.5,263.7,356.1,263.7,356.1z M283,357.1l-4.2,9.2l-2.2,8.2l-3-8.2c0,0-0.8-4.7-0.5-7c0.2-1.5,0.6-2.9,1.3-4.2
		c1-1.8,2.3-2.9,3.7-3.5c0.8-0.3,1.6-0.5,2.4-0.5c1.1-0.1,2.2,0.1,3.3,0.3c2.4,0.6,4.2,1.7,4.2,1.7C286.2,353.4,283,357.1,283,357.1
		z M293.9,369.5l-1.9-15l1.9-2.3l3.4-1.2l0.8-0.1c0,0,2.9,0.2,4.5,1.3c0.4,0.3,0.3,1.8,0.3,1.8L293.9,369.5z M318.6,377.8
		c0,0-4.2,1.7-8.2,0.2c-1.3-0.5-2.5-1.2-3.6-2.3c-1.6-1.6-2.9-4-3.7-6.7c-0.6-2.2-0.8-4.6-0.5-7.1l4.4-13.2l4-5.3l5.4-1.1l2.2,3.4
		c0,0,0.8,5.2,0.9,8.6C319.9,364.9,318.6,377.8,318.6,377.8z M335.6,373.3l-5.6,5.6c0,0-0.8-1.3-1.7-0.8c-3.4,1.9-6.3-0.3-6.3-0.3
		s-1.7-13.1-1.3-23.8c0.1-3.4,0.4-6.4,1-8.6c0.6-1.9,1.4-3.1,2.5-3.2c2.5-0.2,5.9,1.3,5.9,1.3l4.5,6l2,12.2
		c-0.2,3.2-1.5,6.5-1.7,8.8C334.7,372.2,335.6,373.3,335.6,373.3z M351.4,356.5l-2.7,4.3c0,0-2.4,9.3-2.5,13.6
		c-0.9,0.1-2.8-3.4-3.7-4.2c-0.5-0.5-0.4-2.7-0.4-2.7s-5-12.1-3.7-15l3.1-1.1l5.5-0.2l4.7,2.6L351.4,356.5z M397,349.1l-4.1,7
		l-8.4,19.1l1-7.1l3.4-7.8l-2.4-4.2l-12.3,3.9l-3.4,11.7l-1.1-14.1l-8.4,3.7l-4.7,12.4c0,0,0-7-0.4-8.8c-0.4-1.8-4-8.3-2.9-10.1
		c0,0,2.3-2.9,6.7-3.7c2.3-0.4,5.9-0.2,8.4,1.2c0.7,0.7,1.2,1.3,1.6,1.9c0.1-1,0.2-1.7,0.2-1.7s6.8-6.6,15.4-0.7
		c0.2,0.2,0.4,0.3,0.6,0.5c0.1-0.4,0.6-1.1,0.6-1.1l7-2.4L397,349.1z"/>
</g>
</svg>
