<?xml version="1.0" standalone="no"?>
<!DOCTYPE svg PUBLIC "-//W3C//DTD SVG 1.1//EN" "http://www.w3.org/Graphics/SVG/1.1/DTD/svg11.dtd" >
<svg xmlns="http://www.w3.org/2000/svg">
<metadata></metadata>
<defs>
<font id="runicregular" horiz-adv-x="1093" >
<font-face units-per-em="2048" ascent="1765" descent="-283" />
<missing-glyph horiz-adv-x="716" />
<glyph unicode="&#xd;" horiz-adv-x="716" />
<glyph unicode=" "  horiz-adv-x="716" />
<glyph unicode="&#x09;" horiz-adv-x="716" />
<glyph unicode="&#xa0;" horiz-adv-x="716" />
<glyph unicode="A" horiz-adv-x="827" d="M47 2v1376h14l443 -149l270 94l4 -188l-282 -95l-254 78h-15v-233q37 0 115 -31t150 -66l284 103v-178l-284 -107l-250 84h-15v-688h-180z" />
<glyph unicode="B" horiz-adv-x="921" d="M33 -8v1415h14l817 -457q-41 -33 -192.5 -109.5t-194.5 -133.5l387 -230v-14l-817 -471h-14zM248 588l4 -262q35 10 109.5 57t111.5 74q-16 8 -97 57t-128 74zM248 829q53 23 114.5 54.5t110.5 58.5q-33 27 -117.5 74.5t-107.5 70.5v-258z" />
<glyph unicode="C" d="M53 649v19l826 673l55 -55t92 -125l-610 -493l610 -529q-37 -49 -67.5 -88t-96.5 -76z" />
<glyph unicode="D" horiz-adv-x="1075" d="M20 0v1356l531 -518l504 503v-1341l-518 545zM172 397q27 23 132.5 152t119.5 139l-252 250v-541zM668 692q4 -4 112.5 -147.5t126.5 -161.5v555q-29 -35 -109.5 -117t-129.5 -129z" />
<glyph unicode="E" horiz-adv-x="894" d="M47 -10v1370h14l371 -316q47 18 187.5 136t224.5 166v-1356h-193v932q-61 -10 -109 -48t-96 -75q-18 0 -108 71.5t-98 77.5v-958h-193z" />
<glyph unicode="F" horiz-adv-x="860" d="M68 1378h188v-237q20 6 190 103.5t256 148.5q23 -29 47.5 -72t51.5 -88l-549 -297l2 -242l455 252l94 -170q-68 -37 -164 -90t-227 -126t-150 -85l2 -475h-194z" />
<glyph unicode="G" horiz-adv-x="995" d="M31 115l344 608l-330 565q25 23 85 54.5t93 41.5l262 -469h15l276 455l154 -96l-334 -565l346 -621q-16 -12 -61 -36.5t-76 -47.5h-43l-262 483h-27l-289 -483q-70 29 -102.5 48.5t-50.5 62.5z" />
<glyph unicode="H" horiz-adv-x="958" d="M84 2v1344h186v-347q0 -41 176.5 -189t235.5 -181v717h186v-1344h-186v373l-385 319h-27v-692q-43 -6 -67 -6q-23 0 -65 3t-54 3z" />
<glyph unicode="I" horiz-adv-x="1150" d="M39 430q16 39 48 84t73 86l309 -231v1136l657 -475q-27 -57 -58.5 -95t-61.5 -58l-324 213v-1104z" />
<glyph unicode="J" horiz-adv-x="1155" d="M47 590l420 405q45 -29 69.5 -53t69.5 -74l-278 -278q29 -47 130 -145.5t195.5 -189.5t94.5 -114q-25 -33 -55.5 -65.5t-71.5 -32.5q-29 0 -160 122t-266.5 262t-147.5 163zM328 1305q29 49 60.5 78t66.5 47l587 -562l-421 -434l-140 141l281 293z" />
<glyph unicode="K" d="M53 649v19l826 673l55 -55t92 -125l-610 -493l610 -529q-37 -49 -67.5 -88t-96.5 -76z" />
<glyph unicode="L" horiz-adv-x="774" d="M82 -16v1362h27l618 -359q-12 -18 -43 -72.5t-66 -78.5l-315 178h-29v-1030h-192z" />
<glyph unicode="M" horiz-adv-x="1067" d="M20 -283v1395h29l488 -336l487 336h14v-1395h-194v600q-29 29 -168 126.5t-154 97.5q-66 -49 -142.5 -104.5t-162.5 -104.5v-615h-197zM207 549q4 4 60.5 36.5t107.5 69.5q-49 29 -88 59.5t-80 69.5v-235zM702 655q37 -27 92.5 -59.5t75.5 -46.5v235q-80 -78 -168 -129z " />
<glyph unicode="N" horiz-adv-x="1433" d="M170 647l535 531l532 -531v-14l-537 -527zM446 647l265 -266l250 258q-90 88 -178.5 175t-90.5 93z" />
<glyph unicode="O" horiz-adv-x="1153" d="M23 137l407 406l-352 364l489 490l506 -504l-350 -350l405 -420q-53 -76 -139 -139l-407 405q-94 -66 -201 -185.5t-197 -230.5q-47 33 -94 75t-67 89zM367 893q35 -18 115.5 -95t84.5 -87q104 98 211 196q-14 10 -98 90t-113 107q-6 -8 -81.5 -86t-118.5 -125z" />
<glyph unicode="P" horiz-adv-x="933" d="M59 -2v1333l484 -160q25 18 81 71t109 104q37 -27 65.5 -62t55.5 -65q-55 -74 -154.5 -169.5t-128.5 -95.5q-45 18 -110.5 43t-227.5 80v-809q41 6 140.5 38t224.5 83l270 -268q-35 -45 -73.5 -90t-75.5 -45q-4 0 -72.5 75.5t-103.5 98.5z" />
<glyph unicode="R" horiz-adv-x="946" d="M84 -16v1349h12l764 -448l-452 -275q31 -6 235.5 -194.5t228.5 -220.5q-6 -10 -47 -55.5t-51 -78.5l-514 449q0 -115 -1 -215t-1 -189v-61t4 -61h-178zM258 748l270 139q-25 10 -144.5 76.5t-125.5 70.5v-286z" />
<glyph unicode="S" horiz-adv-x="1069" d="M45 506l483 817q10 -8 75 -42t97 -75l-317 -506h645l-500 -790l-151 113l305 483h-637z" />
<glyph unicode="T" horiz-adv-x="880" d="M133 4v1382h186v-173t7 -138q43 -27 150.5 -105.5t211 -155.5t121.5 -85l-490 -360v-365h-186zM319 592l222 125q-25 14 -106 63t-116 76v-264z" />
<glyph unicode="U" horiz-adv-x="946" d="M59 -4v1362l811 -385v-991h-192v868q-63 41 -216 114.5t-210 90.5v-1059h-193z" />
<glyph unicode="W" horiz-adv-x="933" d="M47 -4v1362h14l773 -426q-131 -66 -330 -165t-271 -132v-639h-186zM236 840l198 100l-198 111v-211z" />
<glyph unicode="Y" d="M35 553l420 405q45 -29 69.5 -53t69.5 -74l-279 -278q29 -47 130.5 -145.5t195.5 -189.5t94 -114q-25 -33 -55.5 -65.5t-71.5 -32.5q-29 0 -160 122t-266 262t-147 163zM315 1268q29 49 60.5 78t66.5 47l588 -562l-422 -434l-139 142l281 292z" />
<glyph unicode="Z" horiz-adv-x="1118" d="M57 1149q29 18 63 50t62 61l275 -289h26v413h181v-399h14l289 262q33 -20 78 -60t45 -65q-2 0 -125 -122.5t-212 -218t-89 -113.5v-674h-181v674z" />
<glyph unicode="a" horiz-adv-x="860" d="M47 18v1377h14l785 -289q-8 -20 -23.5 -61t-31.5 -91h-56l-493 181h-15v-234q49 0 293 -97t248 -97q-2 -6 -8 -77t-25 -102l-493 179h-15v-689h-180z" />
<glyph unicode="b" horiz-adv-x="921" d="M33 -8v1415h14l817 -457q-41 -33 -192.5 -109.5t-194.5 -133.5l387 -230v-14l-817 -471h-14zM248 588l4 -262q35 10 109.5 57t111.5 74q-16 8 -97 57t-128 74zM248 829q53 23 114.5 54.5t110.5 58.5q-33 27 -117.5 74.5t-107.5 70.5v-258z" />
<glyph unicode="c" d="M53 649v19l826 673l55 -55t92 -125l-610 -493l610 -529q-37 -49 -67.5 -88t-96.5 -76z" />
<glyph unicode="d" horiz-adv-x="1075" d="M20 0v1356l531 -518l504 503v-1341l-518 520zM172 434q23 20 129.5 132t122.5 122l-252 250v-504zM668 692l245 -272l-6 518q-29 -35 -109.5 -117t-129.5 -129z" />
<glyph unicode="e" horiz-adv-x="894" d="M47 -10v1370h14l371 -316q47 18 187.5 136t224.5 166v-1356h-193v932q-61 -10 -109 -48t-96 -75q-18 0 -108 71.5t-98 77.5v-958h-193z" />
<glyph unicode="f" horiz-adv-x="860" d="M68 1378h188v-237q20 6 190 103.5t256 148.5q23 -29 47.5 -72t51.5 -88l-549 -297l2 -242l455 252l94 -170q-68 -37 -164 -90t-227 -126t-150 -85l2 -475h-194z" />
<glyph unicode="g" horiz-adv-x="995" d="M31 115l344 608l-330 565q25 23 85 54.5t93 41.5l262 -469h15l276 455l154 -96l-334 -565l346 -621q-16 -12 -61 -36.5t-76 -47.5h-43l-262 483h-27l-289 -483q-70 29 -102.5 48.5t-50.5 62.5z" />
<glyph unicode="h" horiz-adv-x="958" d="M84 2v1344h186v-347q0 -41 176.5 -189t235.5 -181v717h186v-1344h-186v373l-385 319h-27v-692q-43 -6 -67 -6q-23 0 -65 3t-54 3z" />
<glyph unicode="i" horiz-adv-x="503" d="M170 -8v1341h172v-1341h-172z" />
<glyph unicode="j" horiz-adv-x="1155" d="M47 590l420 405q45 -29 69.5 -53t69.5 -74l-278 -278q29 -47 130 -145.5t195.5 -189.5t94.5 -114q-25 -33 -55.5 -65.5t-71.5 -32.5q-29 0 -160 122t-266.5 262t-147.5 163zM328 1305q29 49 60.5 78t66.5 47l587 -562l-421 -434l-140 141l281 293z" />
<glyph unicode="k" d="M53 649v19l826 673l55 -55t92 -125l-610 -493l610 -529q-37 -49 -67.5 -88t-96.5 -76z" />
<glyph unicode="l" horiz-adv-x="774" d="M82 -16v1362h27l618 -359q-12 -18 -43 -72.5t-66 -78.5l-315 178h-29v-1030h-192z" />
<glyph unicode="m" horiz-adv-x="1067" d="M20 -283v1395h29l488 -336l487 336h14v-1395h-194v600q-29 29 -168 126.5t-154 97.5q-66 -49 -142.5 -104.5t-162.5 -104.5v-615h-197zM207 549q4 4 60.5 36.5t107.5 69.5q-49 29 -88 59.5t-80 69.5v-235zM702 655q37 -27 92.5 -59.5t75.5 -46.5v235q-80 -78 -168 -129z " />
<glyph unicode="n" horiz-adv-x="980" d="M-6 987q0 35 29.5 66.5t91.5 76.5l254 -215v431h200v-457q0 -14 -1 -31.5t-1 -36.5q0 -66 56.5 -112.5t347.5 -288.5q-31 -49 -61.5 -83t-71.5 -50l-254 213q0 -137 -3 -312.5t-3 -197.5h-205q0 254 -3 415.5t-5 262.5q-133 106 -218.5 174.5t-152.5 144.5z" />
<glyph unicode="o" horiz-adv-x="1153" d="M23 137l407 406l-352 364l489 490l506 -504l-350 -350l405 -420q-53 -76 -139 -139l-407 405q-94 -66 -201 -185.5t-197 -230.5q-47 33 -94 75t-67 89zM367 893q35 -18 115.5 -95t84.5 -87q104 98 211 196q-14 10 -98 90t-113 107q-6 -8 -81.5 -86t-118.5 -125z" />
<glyph unicode="p" horiz-adv-x="933" d="M59 -2v1333l484 -160q25 18 81 71t109 104q37 -27 65.5 -62t55.5 -65q-55 -74 -154.5 -169.5t-128.5 -95.5q-45 18 -110.5 43t-227.5 80v-809q41 6 140.5 38t224.5 83l270 -268q-35 -45 -73.5 -90t-75.5 -45q-4 0 -72.5 75.5t-103.5 98.5z" />
<glyph unicode="r" horiz-adv-x="946" d="M84 -16v1349h12l764 -448l-452 -275q31 -6 235.5 -194.5t228.5 -220.5q-6 -10 -47 -55.5t-51 -78.5l-514 449q0 -115 -1 -215t-1 -189v-61t4 -61h-178zM258 748l270 139q-25 10 -144.5 76.5t-125.5 70.5v-286z" />
<glyph unicode="s" horiz-adv-x="1069" d="M45 506l483 817q10 -8 75 -42t97 -75l-317 -506h645l-500 -790l-151 113l305 483h-637z" />
<glyph unicode="t" horiz-adv-x="1032" d="M-10 891q2 0 128 118.5t252 237.5t132 123l497 -498q-23 -31 -66.5 -70.5t-58.5 -53.5l-280 264l4 -1010h-195v1008l-288 -248q-25 23 -61 60.5t-64 68.5z" />
<glyph unicode="u" horiz-adv-x="946" d="M59 -4v1362l811 -385v-991h-192v868q-63 41 -216 114.5t-210 90.5v-1059h-193z" />
<glyph unicode="w" horiz-adv-x="933" d="M47 -4v1362h14l773 -426q-131 -66 -330 -165t-271 -132v-639h-186zM236 840l198 100l-198 111v-211z" />
<glyph unicode="y" d="M35 553l420 405q45 -29 69.5 -53t69.5 -74l-279 -278q29 -47 130.5 -145.5t195.5 -189.5t94 -114q-25 -33 -55.5 -65.5t-71.5 -32.5q-29 0 -160 122t-266 262t-147 163zM315 1268q29 49 60.5 78t66.5 47l588 -562l-422 -434l-139 142l281 292z" />
<glyph unicode="z" horiz-adv-x="1118" d="M57 1149q29 18 63 50t62 61l275 -289h26v413h181v-399h14l289 262q33 -20 78 -60t45 -65q-2 0 -125 -122.5t-212 -218t-89 -113.5v-674h-181v674z" />
<glyph unicode="&#xfd;" horiz-adv-x="0" />
<glyph unicode="&#x2000;" horiz-adv-x="752" />
<glyph unicode="&#x2001;" horiz-adv-x="1505" />
<glyph unicode="&#x2002;" horiz-adv-x="752" />
<glyph unicode="&#x2003;" horiz-adv-x="1505" />
<glyph unicode="&#x2004;" horiz-adv-x="501" />
<glyph unicode="&#x2005;" horiz-adv-x="376" />
<glyph unicode="&#x2006;" horiz-adv-x="250" />
<glyph unicode="&#x2007;" horiz-adv-x="250" />
<glyph unicode="&#x2008;" horiz-adv-x="188" />
<glyph unicode="&#x2009;" horiz-adv-x="301" />
<glyph unicode="&#x200a;" horiz-adv-x="83" />
<glyph unicode="&#x202f;" horiz-adv-x="301" />
<glyph unicode="&#x205f;" horiz-adv-x="376" />
<glyph unicode="&#x25fc;" horiz-adv-x="1024" d="M0 0z" />
</font>
</defs>
</svg>
